<svg width="22" height="22" viewBox="0 0 22 22" fill="none" xmlns="http://www.w3.org/2000/svg">
<path fill-rule="evenodd" clip-rule="evenodd" d="M4.83066 8.16748C4.83066 4.75362 7.60429 1.97998 11.0182 1.97998C14.4229 1.97998 17.2057 4.76278 17.2057 8.16748V10.8166C17.2057 11.0136 17.2502 11.3019 17.3347 11.6099C17.4182 11.9142 17.526 12.1847 17.6241 12.3564L18.6752 14.1021C19.5053 15.4856 18.8417 17.2878 17.3125 17.7941C13.2205 19.161 8.80552 19.1608 4.71363 17.7937L4.71108 17.7929C3.93887 17.5315 3.35976 16.9911 3.10083 16.2918C2.8416 15.5917 2.92979 14.8037 3.3524 14.1014L4.40513 12.3529C4.40536 12.3525 4.40559 12.3522 4.40583 12.3518C4.50621 12.183 4.61616 11.9135 4.70102 11.6079C4.78613 11.3013 4.83066 11.0134 4.83066 10.8166V8.16748ZM11.0182 3.35498C8.36369 3.35498 6.20566 5.51301 6.20566 8.16748V10.8166C6.20566 11.1791 6.13102 11.597 6.02592 11.9756C5.92076 12.3545 5.76978 12.7491 5.58618 13.057L5.58464 13.0596L4.53057 14.8103C4.53054 14.8103 4.53061 14.8102 4.53057 14.8103C4.30246 15.1895 4.28973 15.5428 4.39027 15.8144C4.49104 16.0865 4.73197 16.348 5.15068 16.49C8.95974 17.7623 13.0688 17.7622 16.8778 16.4896L16.8799 16.4889C17.5681 16.2614 17.8757 15.4428 17.4964 14.81C17.4963 14.8099 17.4965 14.8102 17.4964 14.81L16.4359 13.0486C16.2598 12.7434 16.1123 12.3515 16.0087 11.9736C15.9052 11.5964 15.8307 11.1789 15.8307 10.8166V8.16748C15.8307 5.52218 13.6635 3.35498 11.0182 3.35498Z" fill="#2B2F34"/>
<path fill-rule="evenodd" clip-rule="evenodd" d="M8.68218 2.68247C9.04834 1.74813 9.9574 1.09082 11.0181 1.09082C12.0788 1.09082 12.9879 1.74813 13.354 2.68247C13.4496 2.92637 13.3983 3.20339 13.2217 3.39686C13.0451 3.59032 12.7738 3.6666 12.5223 3.59356C12.268 3.51973 12.0113 3.46402 11.7512 3.43249L11.7487 3.43218C10.9563 3.33313 10.2076 3.39192 9.51419 3.59349C9.2626 3.66663 8.99131 3.59041 8.81463 3.39694C8.63794 3.20348 8.58658 2.92641 8.68218 2.68247Z" fill="#2B2F34"/>
<path fill-rule="evenodd" clip-rule="evenodd" d="M8.95557 17.4717C8.95557 18.0332 9.18914 18.5571 9.56087 18.9289C9.9326 19.3006 10.4566 19.5342 11.0181 19.5342C12.1509 19.5342 13.0806 18.6045 13.0806 17.4717H14.4556C14.4556 19.3639 12.9103 20.9092 11.0181 20.9092C10.0762 20.9092 9.20687 20.5194 8.5886 19.9011C7.97033 19.2829 7.58057 18.4135 7.58057 17.4717H8.95557Z" fill="#2B2F34"/>
</svg>
