<svg width="22" height="22" viewBox="0 0 22 22" fill="none" xmlns="http://www.w3.org/2000/svg">
<rect width="22" height="22" fill="white"/>
<path fill-rule="evenodd" clip-rule="evenodd" d="M10.5418 2.52075C6.11205 2.52075 2.521 6.1118 2.521 10.5416C2.521 14.9714 6.11205 18.5624 10.5418 18.5624C14.9716 18.5624 18.5627 14.9714 18.5627 10.5416C18.5627 6.1118 14.9716 2.52075 10.5418 2.52075ZM1.146 10.5416C1.146 5.35241 5.35265 1.14575 10.5418 1.14575C15.731 1.14575 19.9377 5.35241 19.9377 10.5416C19.9377 15.7308 15.731 19.9374 10.5418 19.9374C5.35265 19.9374 1.146 15.7308 1.146 10.5416Z" fill="#060606"/>
<path fill-rule="evenodd" clip-rule="evenodd" d="M17.8474 17.8471C18.1158 17.5786 18.5511 17.5786 18.8196 17.8471L20.653 19.6804C20.9215 19.9489 20.9215 20.3842 20.653 20.6527C20.3845 20.9212 19.9492 20.9212 19.6807 20.6527L17.8474 18.8194C17.5789 18.5509 17.5789 18.1156 17.8474 17.8471Z" fill="#060606"/>
</svg>
